<svg id="Grupo_13573" data-name="Grupo 13573" xmlns="http://www.w3.org/2000/svg" width="131.642" height="18.239" viewBox="0 0 131.642 18.239">
  <path id="Icon_ionic-ios-star" data-name="Icon ionic-ios-star" d="M21.147,9.689H14.7L12.738,3.84a.71.71,0,0,0-1.333,0L9.445,9.689H2.952a.7.7,0,0,0-.7.7.516.516,0,0,0,.013.118.674.674,0,0,0,.294.5l5.3,3.736L5.823,20.654a.7.7,0,0,0,.241.789.678.678,0,0,0,.395.171.86.86,0,0,0,.438-.158l5.174-3.687,5.174,3.687a.822.822,0,0,0,.438.158.63.63,0,0,0,.39-.171.7.7,0,0,0,.241-.789L16.28,14.739l5.257-3.771.127-.11a.735.735,0,0,0,.228-.469A.743.743,0,0,0,21.147,9.689Z" transform="translate(-2.25 -3.375)" fill="#b7935e"/>
  <path id="Icon_ionic-ios-star-2" data-name="Icon ionic-ios-star" d="M21.147,9.689H14.7L12.738,3.84a.71.71,0,0,0-1.333,0L9.445,9.689H2.952a.7.7,0,0,0-.7.7.516.516,0,0,0,.013.118.674.674,0,0,0,.294.5l5.3,3.736L5.823,20.654a.7.7,0,0,0,.241.789.678.678,0,0,0,.395.171.86.86,0,0,0,.438-.158l5.174-3.687,5.174,3.687a.822.822,0,0,0,.438.158.63.63,0,0,0,.39-.171.7.7,0,0,0,.241-.789L16.28,14.739l5.257-3.771.127-.11a.735.735,0,0,0,.228-.469A.743.743,0,0,0,21.147,9.689Z" transform="translate(53.75 -3.375)" fill="#b7935e"/>
  <path id="Icon_ionic-ios-star-3" data-name="Icon ionic-ios-star" d="M21.147,9.689H14.7L12.738,3.84a.71.71,0,0,0-1.333,0L9.445,9.689H2.952a.7.7,0,0,0-.7.7.516.516,0,0,0,.013.118.674.674,0,0,0,.294.5l5.3,3.736L5.823,20.654a.7.7,0,0,0,.241.789.678.678,0,0,0,.395.171.86.86,0,0,0,.438-.158l5.174-3.687,5.174,3.687a.822.822,0,0,0,.438.158.63.63,0,0,0,.39-.171.7.7,0,0,0,.241-.789L16.28,14.739l5.257-3.771.127-.11a.735.735,0,0,0,.228-.469A.743.743,0,0,0,21.147,9.689Z" transform="translate(25.75 -3.375)" fill="#b7935e"/>
  <path id="Icon_ionic-ios-star-4" data-name="Icon ionic-ios-star" d="M21.147,9.689H14.7L12.738,3.84a.71.71,0,0,0-1.333,0L9.445,9.689H2.952a.7.7,0,0,0-.7.7.516.516,0,0,0,.013.118.674.674,0,0,0,.294.5l5.3,3.736L5.823,20.654a.7.7,0,0,0,.241.789.678.678,0,0,0,.395.171.86.86,0,0,0,.438-.158l5.174-3.687,5.174,3.687a.822.822,0,0,0,.438.158.63.63,0,0,0,.39-.171.7.7,0,0,0,.241-.789L16.28,14.739l5.257-3.771.127-.11a.735.735,0,0,0,.228-.469A.743.743,0,0,0,21.147,9.689Z" transform="translate(81.75 -3.375)" fill="#b7935e"/>
  <path id="Icon_ionic-ios-star-5" data-name="Icon ionic-ios-star" d="M21.147,9.689H14.7L12.738,3.84a.71.71,0,0,0-1.333,0L9.445,9.689H2.952a.7.7,0,0,0-.7.7.516.516,0,0,0,.013.118.674.674,0,0,0,.294.5l5.3,3.736L5.823,20.654a.7.7,0,0,0,.241.789.678.678,0,0,0,.395.171.86.86,0,0,0,.438-.158l5.174-3.687,5.174,3.687a.822.822,0,0,0,.438.158.63.63,0,0,0,.39-.171.7.7,0,0,0,.241-.789L16.28,14.739l5.257-3.771.127-.11a.735.735,0,0,0,.228-.469A.743.743,0,0,0,21.147,9.689Z" transform="translate(109.75 -3.375)" fill="#b7935e"/>
</svg>
