<svg xmlns="http://www.w3.org/2000/svg" width="59" height="59" viewBox="0 0 59 59">
  <g id="Grupo_13315" data-name="Grupo 13315" transform="translate(-0.348)">
    <g id="Elipse_293" data-name="Elipse 293" transform="translate(0.348)" fill="none" stroke="#fff" stroke-width="2">
      <circle cx="29.5" cy="29.5" r="29.5" stroke="none"/>
      <circle cx="29.5" cy="29.5" r="28.5" fill="none"/>
    </g>
    <path id="Icon_awesome-instagram" data-name="Icon awesome-instagram" d="M14.948,9.52a7.664,7.664,0,1,0,7.664,7.664A7.652,7.652,0,0,0,14.948,9.52Zm0,12.647a4.983,4.983,0,1,1,4.983-4.983A4.992,4.992,0,0,1,14.948,22.167Zm9.765-12.96a1.788,1.788,0,1,1-1.788-1.788A1.783,1.783,0,0,1,24.713,9.206Zm5.076,1.814a8.846,8.846,0,0,0-2.415-6.263,8.9,8.9,0,0,0-6.263-2.415c-2.468-.14-9.865-.14-12.333,0A8.892,8.892,0,0,0,2.514,4.751,8.875,8.875,0,0,0,.1,11.014c-.14,2.468-.14,9.865,0,12.333a8.847,8.847,0,0,0,2.415,6.263,8.916,8.916,0,0,0,6.263,2.415c2.468.14,9.865.14,12.333,0a8.847,8.847,0,0,0,6.263-2.415,8.9,8.9,0,0,0,2.415-6.263c.14-2.468.14-9.859,0-12.327ZM26.6,26a5.045,5.045,0,0,1-2.842,2.842c-1.968.78-6.637.6-8.812.6s-6.85.173-8.812-.6A5.045,5.045,0,0,1,3.295,26c-.78-1.968-.6-6.637-.6-8.811s-.173-6.85.6-8.811A5.045,5.045,0,0,1,6.136,5.531c1.968-.78,6.637-.6,8.812-.6s6.85-.173,8.812.6A5.045,5.045,0,0,1,26.6,8.373c.78,1.968.6,6.637.6,8.811S27.382,24.035,26.6,26Z" transform="translate(14.49 13.247)" fill="#fff"/>
  </g>
</svg>
