<svg xmlns="http://www.w3.org/2000/svg" width="59" height="58" viewBox="0 0 59 58">
  <g id="Grupo_13317" data-name="Grupo 13317" transform="translate(-0.155 -0.471)">
    <g id="Elipse_294" data-name="Elipse 294" transform="translate(0.155 0.471)" fill="none" stroke="#fff" stroke-width="2">
      <ellipse cx="29.5" cy="29" rx="29.5" ry="29" stroke="none"/>
      <ellipse cx="29.5" cy="29" rx="28.5" ry="28" fill="none"/>
    </g>
    <path id="Icon_awesome-linkedin-in" data-name="Icon awesome-linkedin-in" d="M6.42,28.681H.474V9.533H6.42ZM3.444,6.921A3.46,3.46,0,1,1,6.887,3.444,3.473,3.473,0,0,1,3.444,6.921Zm25.231,21.76H22.741V19.36c0-2.222-.045-5.07-3.092-5.07-3.092,0-3.565,2.414-3.565,4.91v9.481h-5.94V9.533h5.7v2.612h.083a6.248,6.248,0,0,1,5.626-3.092c6.018,0,7.124,3.963,7.124,9.11V28.681Z" transform="translate(15.123 14.9)" fill="#fff"/>
  </g>
</svg>
