<svg id="Componente_93_1" data-name="Componente 93 – 1" xmlns="http://www.w3.org/2000/svg" width="353.959" height="90.82" viewBox="0 0 353.959 90.82">
  <path id="Trazado_5228" data-name="Trazado 5228" d="M979.936,563.047a.972.972,0,0,0-.076.238,16.3,16.3,0,0,1-1.063,4.822,19.422,19.422,0,0,1-4.636,7.271,20.231,20.231,0,0,1-21.062,4.778,17.436,17.436,0,0,1-9.841-8.664,19.918,19.918,0,0,1-2.19-8.423,21.715,21.715,0,0,1,1.076-8.127,18.579,18.579,0,0,1,15.775-12.64,20.915,20.915,0,0,1,9.919,1.271,18.665,18.665,0,0,1,10.231,9.213,17.994,17.994,0,0,1,1.752,5.766c.044.327.078.655.116.983Zm-5.81.9a29.929,29.929,0,0,0-.523-5.231,23.722,23.722,0,0,0-3.156-8.135,14.437,14.437,0,0,0-4.612-4.685,11.877,11.877,0,0,0-4.963-1.762,13.977,13.977,0,0,0-4.194.22,13.024,13.024,0,0,0-4.081,1.436,11.146,11.146,0,0,0-4.744,5.531,18.163,18.163,0,0,0-1.215,8,32.525,32.525,0,0,0,.685,5.3,24.865,24.865,0,0,0,3,7.876,14.686,14.686,0,0,0,4.281,4.648,11.249,11.249,0,0,0,6.109,2.069,16.115,16.115,0,0,0,4.728-.619,10.217,10.217,0,0,0,4.575-2.579,13.543,13.543,0,0,0,3.6-6.716A20.891,20.891,0,0,0,974.126,563.945Z" transform="translate(-625.977 -501.739)" fill="#b7935e"/>
  <path id="Trazado_5229" data-name="Trazado 5229" d="M246.354,427.34c0,.19-.005.38-.005.57q0,16.136,0,32.272v.525l-.059.01c-.123-.519-.243-1.038-.37-1.555a47.727,47.727,0,0,0-11.512-21.456A44.568,44.568,0,0,0,220.552,427.6a3.181,3.181,0,0,1-.395-.259Z" transform="translate(-158.93 -427.34)" fill="#b7935e"/>
  <path id="Trazado_5230" data-name="Trazado 5230" d="M72.266,427.34a2.318,2.318,0,0,1-.348.246,44.558,44.558,0,0,0-13.291,9.485,48.088,48.088,0,0,0-12.143,22.221.612.612,0,0,1-.173.321c0-.164-.013-.327-.013-.491q0-5.949,0-11.9,0-9.614,0-19.229c0-.219.022-.437.034-.656Z" transform="translate(-46.289 -427.34)" fill="#b7935e"/>
  <path id="Trazado_5231" data-name="Trazado 5231" d="M134.238,514.27c-.551,0-1.048.031-1.539-.005a30.871,30.871,0,0,1-7.393-1.444,31.538,31.538,0,0,1-11.591-6.934,42.907,42.907,0,0,1-8.851-11.661,48.127,48.127,0,0,1-4.724-13.536,47.443,47.443,0,0,1-.822-7.978,45.127,45.127,0,0,1,2.461-15.213,51.055,51.055,0,0,1,7.679-14.82,35.829,35.829,0,0,1,8.847-8.456,28.586,28.586,0,0,1,11.32-4.429c1.255-.2,2.529-.289,3.795-.42.212-.022.429,0,.693,0-.072.142-.119.244-.175.342a76.573,76.573,0,0,0-7.651,18.8,87.071,87.071,0,0,0-2.076,10.359,77.017,77.017,0,0,0-.736,7.905c-.071,2.032-.152,4.065-.137,6.1.018,2.5.162,5,.392,7.491a88.977,88.977,0,0,0,2.735,15.222,77.166,77.166,0,0,0,5.728,14.924c.58,1.132,1.216,2.236,1.826,3.353C134.086,513.993,134.155,514.119,134.238,514.27Z" transform="translate(-80.635 -428.65)" fill="#b7935e"/>
  <path id="Trazado_5232" data-name="Trazado 5232" d="M576.37,563.531a5.187,5.187,0,0,1,1.964,1.88,34.738,34.738,0,0,1,2.1,3.8c.942,1.883,1.866,3.778,2.872,5.627a20.857,20.857,0,0,0,3.546,4.782,8.87,8.87,0,0,0,4.347,2.515,13.9,13.9,0,0,1,1.377.437.554.554,0,0,1,.338.868.966.966,0,0,1-.739.55,9.78,9.78,0,0,1-2.454.048,13.649,13.649,0,0,1-7.357-2.932,15.966,15.966,0,0,1-4.358-5.443c-.98-1.994-1.876-4.029-2.823-6.039a13.635,13.635,0,0,0-2.674-3.99,5.271,5.271,0,0,0-4.334-1.609c-.67.057-.919.282-1,.938a8.938,8.938,0,0,0-.076,1.093q-.008,5.2,0,10.407a7.541,7.541,0,0,0,.157,1.479,2.06,2.06,0,0,0,1.464,1.659,12.033,12.033,0,0,0,1.541.326c.706.118,1.416.208,2.125.31.029,0,.057.012.086.018.482.089.6.188.622.537.037.5-.13.81-.556.913a4.791,4.791,0,0,1-1,.138,36.847,36.847,0,0,1-4.429-.192,33.08,33.08,0,0,0-5.308-.089c-1.431.1-2.858.267-4.3.23-.1,0-.205,0-.308,0-.6-.03-.734-.17-.748-.781-.01-.421.1-.594.509-.694.468-.114.946-.191,1.42-.28.331-.063.665-.109.993-.182a4.727,4.727,0,0,0,.714-.211,2.84,2.84,0,0,0,1.973-2.776c0-.132,0-.263,0-.4q0-6.521,0-13.042c0-1.478.013-2.956.029-4.434.025-2.414.061-4.828.085-7.242.01-1.023.035-2.048-.01-3.07a2.106,2.106,0,0,0-1.647-2.03,10.785,10.785,0,0,0-2.041-.274,11.3,11.3,0,0,1-1.258-.174c-.49-.108-.623-.308-.608-.766.015-.474.188-.722.665-.778a14.9,14.9,0,0,1,1.7-.08c.512,0,1.023.065,1.535.065,2.5,0,5.01-.006,7.514-.031,1.581-.016,3.161-.092,4.742-.1a14.094,14.094,0,0,1,4.706.743,9.045,9.045,0,0,1,6.4,8.645,7.634,7.634,0,0,1-.325,2.814,9.287,9.287,0,0,1-2.453,3.694,16.825,16.825,0,0,1-4.006,2.746Zm-9.216-8.9h-.073c0,.527,0,1.054,0,1.58-.014,1.493-.033,2.985-.045,4.478a6.881,6.881,0,0,0,.036.742.843.843,0,0,0,.707.792,4.564,4.564,0,0,0,1,.129c.79-.006,1.582-.022,2.369-.089a12.839,12.839,0,0,0,2.8-.508,6.2,6.2,0,0,0,4.429-4.571,10.5,10.5,0,0,0,.06-5.129,7.213,7.213,0,0,0-3.768-4.882,9.08,9.08,0,0,0-3.443-.971,8.329,8.329,0,0,0-2.535.076,1.7,1.7,0,0,0-1.421,1.429,6.356,6.356,0,0,0-.11,1.219C567.148,550.827,567.154,552.729,567.154,554.631Z" transform="translate(-376.811 -503.255)" fill="#b7935e"/>
  <path id="Trazado_5233" data-name="Trazado 5233" d="M693.094,574.243a.715.715,0,0,0,.633-.721,6.037,6.037,0,0,0,.011-.745c.01-2.9.026-5.8.028-8.694q0-5.159-.015-10.319c0-1.361-.008-2.722-.049-4.082a7.046,7.046,0,0,0-.219-1.426,1.658,1.658,0,0,0-1.263-1.267,10.233,10.233,0,0,0-2.259-.287c-.526-.026-1.052-.064-1.574-.133a.842.842,0,0,1-.741-1.082.631.631,0,0,1,.442-.549,2.472,2.472,0,0,1,.728-.121c1.419.037,2.838.094,4.257.146q2.658.1,5.314-.054c.7-.04,1.4-.054,2.106-.064a2.692,2.692,0,0,1,.652.073.737.737,0,0,1,.6.721.705.705,0,0,1-.506.823,10.706,10.706,0,0,1-1.373.281c-.651.1-1.307.163-1.959.26a1.481,1.481,0,0,0-1.333,1.166,14.887,14.887,0,0,0-.429,2.279c-.114,1.5-.184,3.009-.191,4.514-.023,4.7-.007,9.4-.009,14.1,0,1.317-.009,2.635-.014,3.952q-.015,3.885-.034,7.771c0,.512-.024,1.024-.059,1.535a.94.94,0,0,1-.569.954.908.908,0,0,1-1.045-.367c-.532-.6-1.048-1.221-1.564-1.839-1.932-2.315-3.836-4.655-5.8-6.945q-8.371-9.773-16.775-19.517c-.667-.777-1.266-1.612-1.926-2.4-.508-.6-1.062-1.167-1.6-1.745a3.343,3.343,0,0,0-.326-.263,2.659,2.659,0,0,0-.086.405c-.034.95-.077,1.9-.086,2.85-.008.892.023,1.784.035,2.677q.045,3.292.089,6.583c.02,1.477.044,2.955.06,4.432.032,2.9.045,5.794.1,8.691a17.4,17.4,0,0,0,.247,2.087,2.722,2.722,0,0,0,.186.583,1.961,1.961,0,0,0,1.45,1.28c.341.079.691.114,1.038.166.8.12,1.594.219,2.383.37a2.363,2.363,0,0,1,.742.363.731.731,0,0,1,.281.326c.209.521.148.88-.474.943a9.8,9.8,0,0,1-1.36.017c-1.185-.046-2.368-.121-3.553-.163-1.817-.064-3.63.025-5.444.123-.92.049-1.844.047-2.767.042a3.417,3.417,0,0,1-.817-.148.619.619,0,0,1-.491-.6.724.724,0,0,1,.378-.774,3.245,3.245,0,0,1,1.269-.315c.481-.043.964-.067,1.446-.1a2.594,2.594,0,0,0,2.562-2.068,7.916,7.916,0,0,0,.225-1.956c.035-1.257.042-2.516.061-3.774q.044-2.963.089-5.925c.028-1.784.068-3.569.085-5.353q.048-4.961.071-9.921a10.306,10.306,0,0,0-.093-1.444,2.838,2.838,0,0,0-1.707-2.24,5.906,5.906,0,0,0-2.162-.529c-.51-.038-1.021-.091-1.524-.178a4.05,4.05,0,0,1-.829-.277.688.688,0,0,1-.08-1.19,2.071,2.071,0,0,1,1.151-.376c.878.02,1.756.063,2.634.061,1.375,0,2.751-.037,4.127-.055.4-.005.791,0,1.187-.005a2.6,2.6,0,0,1,2.022.9c.276.3.535.621.8.932.295.344.566.713.888,1.03,1.09,1.069,2.01,2.285,3,3.439q5.781,6.729,11.551,13.467c2.642,3.1,5.256,6.215,7.883,9.323C692.891,574.01,692.987,574.119,693.094,574.243Z" transform="translate(-442.113 -503.446)" fill="#b7935e"/>
  <path id="Trazado_5234" data-name="Trazado 5234" d="M480.483,561.3a19.946,19.946,0,0,1-10.821,17.742,18.964,18.964,0,0,1-6.311,2.058,19.336,19.336,0,0,1-14.2-3.27,17.592,17.592,0,0,1-6-7.586,20.364,20.364,0,0,1-1.615-7.723,21.708,21.708,0,0,1,.711-6.3,18.435,18.435,0,0,1,9.769-12.076,18.632,18.632,0,0,1,7.6-1.938,20.565,20.565,0,0,1,9.865,1.862,18.424,18.424,0,0,1,10.342,12.064A18.933,18.933,0,0,1,480.483,561.3Zm-5.865,2.594a29.336,29.336,0,0,0-.537-5.274,23.9,23.9,0,0,0-2.98-7.786,14.479,14.479,0,0,0-5.043-5.1,11.616,11.616,0,0,0-5.665-1.663,16.292,16.292,0,0,0-3.96.446,10.988,10.988,0,0,0-7.724,6.022,16.135,16.135,0,0,0-1.6,7.089,30.777,30.777,0,0,0,.7,6.97,25.034,25.034,0,0,0,2.874,7.692,14.717,14.717,0,0,0,4.677,5.039,11.169,11.169,0,0,0,5.767,1.891,16.045,16.045,0,0,0,4.859-.631,10.262,10.262,0,0,0,4.806-2.856,14.081,14.081,0,0,0,3.474-7.166A21.269,21.269,0,0,0,474.618,563.892Z" transform="translate(-302.358 -501.743)" fill="#b7935e"/>
  <path id="Trazado_5235" data-name="Trazado 5235" d="M803.645,581.577c-3.164,0-6.329-.008-9.493,0-1.039,0-2.078.075-3.116.093-.555.009-1.111-.02-1.666-.052a.526.526,0,0,1-.538-.482c-.053-.3-.081-.6.238-.776a2.718,2.718,0,0,1,.566-.23c.9-.255,1.8-.5,2.7-.751a4.176,4.176,0,0,0,.614-.236,2.468,2.468,0,0,0,1.412-1.639,9.452,9.452,0,0,0,.326-2.43c.023-1.931,0-3.862-.015-5.793,0-.482-.031-.965-.032-1.447-.013-2.942-.016-5.884-.032-8.826q-.027-4.894-.079-9.788a5.619,5.619,0,0,0-.164-1.168,1.665,1.665,0,0,0-.975-1.168,7.648,7.648,0,0,0-2.376-.577c-.406-.053-.813-.108-1.214-.19a.7.7,0,0,1-.632-.584.679.679,0,0,1,.5-.855,4.826,4.826,0,0,1,1.725-.275c1.23.009,2.459.038,3.689.057,2.46.039,4.919.109,7.379.106,2.987,0,5.974-.075,8.961-.108,1.127-.013,2.255,0,3.382,0a3.279,3.279,0,0,1,.608.079c.5.1.637.251.727.741a12.038,12.038,0,0,1,.14,2.405c-.012.7-.011,1.4-.044,2.106-.029.613-.1,1.223-.152,1.834a1.349,1.349,0,0,1-.068.3c-.2.593-.632.682-1.041.2a1.96,1.96,0,0,1-.309-.527c-.293-.717-.568-1.442-.854-2.161-.108-.272-.228-.539-.344-.807a2.462,2.462,0,0,0-1.745-1.534,21.615,21.615,0,0,0-2.37-.432,60.647,60.647,0,0,0-7.111-.177,2.458,2.458,0,0,0-2.441,1.789,7.49,7.49,0,0,0-.346,2.553c0,3.044.023,6.088.039,9.132,0,.146.019.292.032.437.049.535.193.736.729.822a10.109,10.109,0,0,0,1.571.123c1.2,0,2.4,0,3.6-.054,1.007-.042,2.018-.11,3.017-.243a2.879,2.879,0,0,0,2.49-1.95,7.924,7.924,0,0,0,.37-1.482,2.138,2.138,0,0,1,.361-.88.724.724,0,0,1,.817-.27c.278.081.4.226.409.6.015.951.049,1.9,0,2.853-.093,1.741-.053,3.48.017,5.219.029.731.053,1.461.064,2.192a4.157,4.157,0,0,1-.069.7,1.1,1.1,0,0,1-.117.328.622.622,0,0,1-1.126,0,5.208,5.208,0,0,1-.328-.9c-.106-.4-.158-.8-.26-1.2-.126-.494-.263-.987-.426-1.47a1.93,1.93,0,0,0-.947-1.055,5.587,5.587,0,0,0-1.993-.644,14.9,14.9,0,0,0-2.89-.136c-.833.045-1.669.017-2.5.054-.657.03-1.312.114-1.968.166a.658.658,0,0,0-.671.625,11.435,11.435,0,0,0-.141,1.393c-.008,3.132-.008,6.265.016,9.4a18.141,18.141,0,0,0,.179,2.315,5.263,5.263,0,0,0,.393,1.295,1.681,1.681,0,0,0,1.3,1.076c.763.13,1.531.256,2.3.313,1.05.078,2.105.1,3.159.126.981.025,1.962.05,2.942.032a31.53,31.53,0,0,0,3.938-.3,3.775,3.775,0,0,0,2.849-1.9c.5-.842.988-1.694,1.5-2.532.31-.513.634-1.018.978-1.508a.8.8,0,0,1,.881-.353.465.465,0,0,1,.434.473,1.507,1.507,0,0,1-.031.477c-.384,1.606-.777,3.21-1.164,4.815-.137.568-.289,1.135-.382,1.711a1.053,1.053,0,0,1-.937.9,3.3,3.3,0,0,1-.7.047Q810.413,581.579,803.645,581.577Z" transform="translate(-527.342 -503.185)" fill="#b7935e"/>
  <path id="Trazado_5236" data-name="Trazado 5236" d="M355.3,540.726a30.943,30.943,0,0,1,6.794.759,17.2,17.2,0,0,1,2.167.7.377.377,0,0,0,.49-.152c.181-.248.335-.515.516-.763.259-.354.517-.709.8-1.04a1.4,1.4,0,0,1,1.056-.464c.384-.015.556.089.608.473a10.963,10.963,0,0,1,.105,1.484c0,.525-.073,1.05-.091,1.576-.042,1.242-.059,2.486-.106,3.728-.031.818-.093,1.635-.147,2.452a1.442,1.442,0,0,1-.07.342c-.143.446-.325.562-.784.5-.174-.023-.345-.059-.518-.086a.558.558,0,0,1-.438-.391c-.141-.368-.272-.74-.38-1.119-.16-.562-.284-1.135-.447-1.7a2.7,2.7,0,0,0-.7-1.2,11.214,11.214,0,0,0-5.368-2.928,13.017,13.017,0,0,0-8.229.537,11.388,11.388,0,0,0-5.451,4.783,17.4,17.4,0,0,0-2.143,5.859,28.6,28.6,0,0,0-.292,8.389,24.9,24.9,0,0,0,1.338,6.11,14.83,14.83,0,0,0,3.546,5.637,11.448,11.448,0,0,0,7.379,3.278,13.314,13.314,0,0,0,8.673-2.373,7.654,7.654,0,0,0,2.528-2.81c.4-.764.859-1.5,1.317-2.228a.747.747,0,0,1,1.007-.385.622.622,0,0,1,.519.575,4.57,4.57,0,0,1,0,.83,23.718,23.718,0,0,1-.948,4.766,2.309,2.309,0,0,1-.986,1.291,11.842,11.842,0,0,1-3.223,1.358,28.866,28.866,0,0,1-8.553,1.051,18.3,18.3,0,0,1-6.891-1.369A18.641,18.641,0,0,1,337.788,567a21.946,21.946,0,0,1-1.346-7.254,22.412,22.412,0,0,1,.715-6.428,16.812,16.812,0,0,1,4.38-7.641,16.367,16.367,0,0,1,6.96-4.025A22.519,22.519,0,0,1,355.3,540.726Z" transform="translate(-234.264 -500.175)" fill="#b7935e"/>
  <path id="Trazado_5237" data-name="Trazado 5237" d="M219.6,613.9a45.854,45.854,0,0,0,17.134-13.593,48.94,48.94,0,0,0,9.234-19.829V613.9Z" transform="translate(-158.567 -526.558)" fill="#b7935e"/>
  <path id="Trazado_5238" data-name="Trazado 5238" d="M72.454,615.772H46.365c-.1-.329-.131-31.768-.027-32.424.06.179.108.293.137.411a47.752,47.752,0,0,0,11.052,21.027,44.532,44.532,0,0,0,12.754,9.85c.6.309,1.209.591,1.813.886.128.062.255.126.382.189Z" transform="translate(-46.274 -528.415)" fill="#b7935e"/>
  <path id="Trazado_5239" data-name="Trazado 5239" d="M885.811,544.82c1.71.082,3.419.181,5.13.243a28.254,28.254,0,0,0,4.648-.141,13.9,13.9,0,0,1,1.665-.085,2.347,2.347,0,0,1,.728.127.728.728,0,0,1,.569.742.663.663,0,0,1-.572.68,11.011,11.011,0,0,1-1.253.188c-.478.061-.965.076-1.434.176a2.162,2.162,0,0,0-1.669,1.52,8,8,0,0,0-.31,2.775c.007.365.038.73.039,1.1q0,5.2,0,10.405,0,2.985-.014,5.971c-.009,2.619,0,5.239-.039,7.857a29.611,29.611,0,0,1-1.171,8.267,16.2,16.2,0,0,1-2.826,5.509,11.553,11.553,0,0,1-6.681,4.087.488.488,0,0,1-.585-.269,1.367,1.367,0,0,1,.107-1.372.872.872,0,0,1,.486-.255,3.871,3.871,0,0,0,2.607-1.551,10.581,10.581,0,0,0,1.708-3.39,24.24,24.24,0,0,0,.881-4.379c.294-2.3.383-4.6.451-6.914.046-1.549.082-3.1.089-4.65q.041-10.163.054-20.325c0-.89-.089-1.781-.17-2.669A1.5,1.5,0,0,0,886.966,547c-.558-.109-1.122-.193-1.686-.262-.624-.077-1.253-.116-1.878-.188a.883.883,0,0,1-.764-.515.848.848,0,0,1,.8-1.227c.35-.026.7-.008,1.054-.009h1.318Z" transform="translate(-587.662 -503.436)" fill="#b7935e"/>
  <path id="Trazado_5240" data-name="Trazado 5240" d="M401.185,460.488c-.48-.217-.9-.407-1.319-.6-.016-.007,0-.08,0-.158a2.5,2.5,0,0,1,.332-.044c2.9,0,5.8-.011,8.7,0a6.914,6.914,0,0,1,3.722,1.007,4.5,4.5,0,0,1,2.1,2.654,4.119,4.119,0,0,1-1.291,4.339,6.006,6.006,0,0,1-3.211,1.5c-.2.033-.4.064-.637.1a2.675,2.675,0,0,0,.135.285q3.029,4.809,6.057,9.619a.786.786,0,0,0,.469.359c.266.08.528.174.788.27.132.049.129.057.128.315-.115.006-.23.017-.345.018-.8,0-1.61-.01-2.414.007a.569.569,0,0,1-.558-.314q-2.043-3.277-4.107-6.542c-.771-1.226-1.547-2.449-2.308-3.681a.606.606,0,0,0-.6-.337c-1.039.02-2.079.007-3.119.009-.115,0-.23.012-.406.023-.014.606,0,1.2-.007,1.793s0,1.2,0,1.8v7.216h-2.105c-.018-1.094-.005-2.185-.008-3.275s0-2.166,0-3.249V460.488Zm2.141,8.236c.109.01.193.025.277.025,1.449,0,2.9.022,4.347-.006a4.912,4.912,0,0,0,3.23-1.175,4.049,4.049,0,0,0,.045-6.112,5.014,5.014,0,0,0-3.434-1.219c-1.375-.011-2.751,0-4.127,0-.112,0-.223.021-.338.032Z" transform="translate(-275.354 -448.291)" fill="#b7935e"/>
  <path id="Trazado_5241" data-name="Trazado 5241" d="M566.222,458.1a10.679,10.679,0,0,1,5.958,1.691,9.977,9.977,0,0,1,4.339,6.264,11.025,11.025,0,0,1-1.525,8.988,9.657,9.657,0,0,1-7.275,4.377,11.484,11.484,0,0,1-5.494-.576,9.783,9.783,0,0,1-6.124-6.556,10.959,10.959,0,0,1,1.637-10.166,9.619,9.619,0,0,1,6.736-3.874C565.053,458.172,565.639,458.151,566.222,458.1Zm8.376,10.8a12.666,12.666,0,0,0-1.154-5.548,7.763,7.763,0,0,0-6.489-4.795,7.287,7.287,0,0,0-4.748,1.068,8.668,8.668,0,0,0-3.463,4.3,13.5,13.5,0,0,0-.656,7.462,11.008,11.008,0,0,0,1.558,4.071,7.731,7.731,0,0,0,13.429-.464A12.517,12.517,0,0,0,574.6,468.9Z" transform="translate(-376.209 -447.271)" fill="#b7935e"/>
  <path id="Trazado_5242" data-name="Trazado 5242" d="M354.349,469.234c-.448-.2-.885-.385-1.319-.58-.013-.006,0-.08.01-.149h3.332v.481c0,1.844-.008,3.688.007,5.533a1.37,1.37,0,0,1-.268.856,9.09,9.09,0,0,1-4.688,3.524,12.609,12.609,0,0,1-7.822.081,9.854,9.854,0,0,1-6.98-7.909,11.125,11.125,0,0,1,.932-7.268,9.9,9.9,0,0,1,7.3-5.492,12.2,12.2,0,0,1,6.122.254,8.383,8.383,0,0,1,4.612,3.319c.066.1.13.194.19.295a.793.793,0,0,1,.048.141l-.463.13c-.089-.114-.163-.2-.232-.3a8.049,8.049,0,0,0-5.485-3.234,9.436,9.436,0,0,0-5.376.657,8.645,8.645,0,0,0-4.8,5.264,11.144,11.144,0,0,0,.927,9.8,8.068,8.068,0,0,0,6.144,4.006,10.226,10.226,0,0,0,6.534-1.2,13,13,0,0,0,1.08-.749.507.507,0,0,0,.223-.447c-.006-2.283,0-4.567-.006-6.85A1.068,1.068,0,0,0,354.349,469.234Z" transform="translate(-234.231 -447.229)" fill="#b7935e"/>
  <path id="Trazado_5243" data-name="Trazado 5243" d="M758.508,469.233c-.444-.2-.879-.387-1.311-.585-.012-.006.007-.08.014-.146h3.316v.5c0,1.815-.011,3.629.008,5.444a1.647,1.647,0,0,1-.348,1.049,9.141,9.141,0,0,1-5.123,3.557,12.674,12.674,0,0,1-7.357-.094,9.882,9.882,0,0,1-6.921-7.859,11.113,11.113,0,0,1,.563-6.465,9.93,9.93,0,0,1,7.674-6.326,12.2,12.2,0,0,1,5.827.169,8.437,8.437,0,0,1,4.9,3.411c.082.12.158.243.259.4-.094.041-.165.078-.241.1a2.363,2.363,0,0,1-.233.049,2.4,2.4,0,0,1-.2-.219,7.825,7.825,0,0,0-4.85-3.163,9.377,9.377,0,0,0-7.034,1.025,8.806,8.806,0,0,0-3.993,5.256,11.135,11.135,0,0,0,1.007,9.147,8.179,8.179,0,0,0,6.757,4.208,10.207,10.207,0,0,0,5.815-1.146c.447-.243.85-.565,1.273-.852a.486.486,0,0,0,.22-.445c-.006-2.283,0-4.566-.006-6.849A1.33,1.33,0,0,0,758.508,469.233Z" transform="translate(-496.078 -447.226)" fill="#b7935e"/>
  <path id="Trazado_5244" data-name="Trazado 5244" d="M511.306,469.149v10.808h-2.1V460.279c-.417-.151-.8-.289-1.182-.426-.151-.054-.271-.124-.174-.355h.461q4.109,0,8.218,0a8.987,8.987,0,0,1,2.392.28,5.761,5.761,0,0,1,2.885,1.754,4.211,4.211,0,0,1-.467,6.042,6.184,6.184,0,0,1-3.631,1.5c-.655.056-1.316.07-1.974.075-1.3.011-2.607,0-3.911,0Zm.024-.616c.091.009.161.023.231.023,1.523,0,3.047.025,4.569-.009a4.686,4.686,0,0,0,3.05-1.176,4.026,4.026,0,0,0,1.11-4.514,4.207,4.207,0,0,0-3.821-2.727c-1.661-.117-3.335-.06-5-.076a.454.454,0,0,0-.135.052Z" transform="translate(-345.297 -448.174)" fill="#b7935e"/>
  <path id="Trazado_5245" data-name="Trazado 5245" d="M466.687,459.564h.777c.01.149.028.29.028.43q0,4.15,0,8.3c0,1.873-.019,3.747-.024,5.62a7.388,7.388,0,0,1-.4,2.457,5.411,5.411,0,0,1-2.863,3.116,9.118,9.118,0,0,1-3.164.844,11.451,11.451,0,0,1-4.942-.5,5.731,5.731,0,0,1-4.121-5.115,12.027,12.027,0,0,1-.072-1.313q-.008-6.258,0-12.515v-.529c-.406-.308-.963-.273-1.321-.639-.019-.019.007-.083.015-.153h3.465c0,.167.013.337.013.506q0,6.7,0,13.394a7.005,7.005,0,0,0,.437,2.624,4.857,4.857,0,0,0,3.423,3.017,9.581,9.581,0,0,0,4.74.066,4.873,4.873,0,0,0,3.9-4.327,12.326,12.326,0,0,0,.1-1.574q.012-6.587,0-13.174Z" transform="translate(-308.213 -448.217)" fill="#b7935e"/>
  <path id="Trazado_5246" data-name="Trazado 5246" d="M698.061,469.242v10.14H709.8v.546H695.875V460.293c-.476-.222-.905-.42-1.331-.626-.017-.008,0-.081,0-.122.321-.091,14.466-.126,15.253-.037v.506H698.061v8.679h9.3v.551Z" transform="translate(-466.272 -448.147)" fill="#b7935e"/>
  <path id="Trazado_5247" data-name="Trazado 5247" d="M804.8,479.935h-.754l7.979-19.649-1.342-.685a9.529,9.529,0,0,1,2.829-.1l8.378,20.42h-2.166l-2.237-5.622H807.075Zm12.474-6.167-4.992-12.5-4.99,12.5Z" transform="translate(-537.219 -448.143)" fill="#b7935e"/>
  <path id="Trazado_5248" data-name="Trazado 5248" d="M646.648,459.568h3.482v19.868c.524.048,1.018.018,1.51.023s1,0,1.494,0h9.01c.01.181.018.334.025.482-.321.106-13.294.148-14.143.046V460.37c-.492-.225-.935-.427-1.376-.636C646.634,459.727,646.648,459.654,646.648,459.568Z" transform="translate(-435.242 -448.22)" fill="#b7935e"/>
  <path id="Trazado_5249" data-name="Trazado 5249" d="M859.711,460.3c-.5-.211-.934-.387-1.359-.575-.027-.012-.019-.105-.036-.227,1.172-.007,2.316,0,3.5,0V479.39c.524.048,1.018.018,1.509.023s1,0,1.494,0h9.01c.01.181.018.334.026.482-.321.106-13.287.148-14.143.047Z" transform="translate(-572.381 -448.174)" fill="#b7935e"/>
</svg>
