<svg xmlns="http://www.w3.org/2000/svg" width="107.217" height="112.605" viewBox="0 0 107.217 112.605">
  <g id="Grupo_13798" data-name="Grupo 13798" opacity="0.8">
    <path id="Trazado_5303" data-name="Trazado 5303" d="M-601.146,190.756c7.571.128,13.62,3.148,18.018,9.294a20.512,20.512,0,0,1,3.836,11.875c.042,2.763.034,5.526.005,8.289a8,8,0,0,1-8.126,8.122q-16.011.04-32.022,0a7.938,7.938,0,0,1-8.059-8.044c.015-3.97-.219-8.008.409-11.9a21.3,21.3,0,0,1,21.39-17.625,15.4,15.4,0,0,1-9.864-6.39,14.246,14.246,0,0,1-2.2-11.491,14.748,14.748,0,0,1,14.644-11.562,14.81,14.81,0,0,1,14.239,12.227,14.477,14.477,0,0,1-2.613,11.178A15.275,15.275,0,0,1-601.146,190.756Z" transform="translate(657.026 -115.752)" fill="#dcb57c"/>
    <path id="Trazado_5304" data-name="Trazado 5304" d="M-548.488,189.405c6.549.061,11.718,2.383,15.6,7.321a17.731,17.731,0,0,1,3.886,10.79c.047,2.135.068,4.273,0,6.406a7.74,7.74,0,0,1-7.274,7.612c-5.478.178-10.967.044-16.451.039-.073,0-.146-.061-.361-.158,0-2.4-.026-4.856.006-7.314a26.775,26.775,0,0,0-2.486-11.807,27.338,27.338,0,0,0-7.708-9.772,19.292,19.292,0,0,1,10.753-3.176,12.513,12.513,0,0,1-7.889-5.3,11.741,11.741,0,0,1-1.729-9.359,12.094,12.094,0,0,1,12.473-9.35,12.123,12.123,0,0,1,11.281,10.767C-537.643,182.142-541.5,187.332-548.488,189.405Z" transform="translate(636.181 -117.051)" fill="#dcb57c"/>
    <path id="Trazado_5305" data-name="Trazado 5305" d="M-647,221.575c-5.771,0-11.338.142-16.892-.048A7.654,7.654,0,0,1-671.1,214c-.065-3.626-.393-7.283.617-10.858A18.77,18.77,0,0,1-652.8,189.448a3.831,3.831,0,0,0,.909-.084,12.633,12.633,0,0,1-7.908-5.388,11.711,11.711,0,0,1-1.658-9.366,12.086,12.086,0,0,1,12.276-9.275,12.1,12.1,0,0,1,11.428,10.589c.9,5.98-2.7,10.914-9.946,13.494a19.051,19.051,0,0,1,10.883,3.09,27.4,27.4,0,0,0-7.21,8.732,25.427,25.427,0,0,0-2.965,11.425C-647.033,215.587-647,218.509-647,221.575Z" transform="translate(671.197 -117.052)" fill="#dcb57c"/>
    <path id="Trazado_5306" data-name="Trazado 5306" d="M-612.248,120.086c.917-2.841-.192-5.287-2.3-7.477a27,27,0,0,1-2.387-3.072,3.248,3.248,0,0,1,1.712-5.225c2.229-.708,4.5-1.283,6.724-2.01a3.3,3.3,0,0,0,1.535-1.127c1.336-1.821,2.565-3.719,3.858-5.572,1.612-2.307,4.173-2.324,5.787-.032,1.252,1.779,2.5,3.563,3.677,5.393a3.249,3.249,0,0,0,2.054,1.462c2.058.549,4.1,1.163,6.135,1.793,2.766.856,3.538,3.273,1.792,5.594-1.333,1.773-2.74,3.492-4.028,5.3a3.546,3.546,0,0,0-.64,1.91c-.013,2.259.143,4.518.17,6.779.034,2.745-2.033,4.24-4.63,3.358-2.216-.753-4.4-1.589-6.624-2.324a2.626,2.626,0,0,0-1.539-.006c-2.143.7-4.257,1.5-6.388,2.239-2.922,1.018-4.937-.418-4.912-3.479C-612.241,122.5-612.248,121.408-612.248,120.086Z" transform="translate(653.828 -93.862)" fill="#dcb57c"/>
    <path id="Trazado_5307" data-name="Trazado 5307" d="M-666.55,131.924c.843-2.466-.392-4.585-2.218-6.54a20.807,20.807,0,0,1-1.762-2.283,2.746,2.746,0,0,1,1.5-4.4c1.833-.576,3.7-1.043,5.521-1.652a3.168,3.168,0,0,0,1.45-1.046c1.123-1.508,2.132-3.1,3.218-4.638,1.37-1.938,3.477-1.951,4.865-.043a14.694,14.694,0,0,1,1.473,2.181,7.626,7.626,0,0,0,6.167,4.445,15.11,15.11,0,0,1,2.4.7c2.323.758,2.95,2.747,1.473,4.715-1.1,1.472-2.285,2.888-3.34,4.395a3.405,3.405,0,0,0-.58,1.81c-.022,1.8.118,3.6.148,5.4.043,2.508-1.7,3.78-4.052,2.98-1.424-.484-2.87-.923-4.241-1.53a4.267,4.267,0,0,0-3.693-.023c-1.373.6-2.82,1.044-4.242,1.531-2.4.822-4.091-.386-4.085-2.9C-666.548,134.1-666.55,133.183-666.55,131.924Z" transform="translate(671.177 -99.067)" fill="#dcb57c"/>
    <path id="Trazado_5308" data-name="Trazado 5308" d="M-551.539,132.147c.782-2.518-.173-4.608-1.964-6.47a24.444,24.444,0,0,1-1.772-2.276c-1.53-2.029-.9-4.021,1.516-4.762,1.317-.4,2.622-.88,3.965-1.163a4.886,4.886,0,0,0,3.586-2.58,35.268,35.268,0,0,1,2.244-3.326c1.535-2.212,3.634-2.235,5.159-.048.981,1.406,1.873,2.88,2.935,4.221a4.613,4.613,0,0,0,1.93,1.376c1.523.565,3.119.932,4.679,1.4,2.729.819,3.385,2.792,1.677,5.043-1.062,1.4-2.187,2.754-3.187,4.2a3.457,3.457,0,0,0-.563,1.818c-.03,1.881.1,3.765.106,5.647a2.734,2.734,0,0,1-3.794,2.786c-1.825-.6-3.608-1.327-5.439-1.906a3.143,3.143,0,0,0-1.777-.007c-1.753.547-3.464,1.226-5.2,1.825-2.426.835-4.132-.44-4.1-3.036C-551.531,134.008-551.539,133.13-551.539,132.147Z" transform="translate(633.851 -99.065)" fill="#dcb57c"/>
  </g>
</svg>
