<svg xmlns="http://www.w3.org/2000/svg" width="59.219" height="59.219" viewBox="0 0 59.219 59.219">
  <g id="Grupo_13488" data-name="Grupo 13488" transform="translate(-1576.688 -383.9)">
    <g id="Elipse_289" data-name="Elipse 289" transform="translate(1576.688 383.9)" fill="none" stroke="#fff" stroke-width="2">
      <circle cx="29.61" cy="29.61" r="29.61" stroke="none"/>
      <circle cx="29.61" cy="29.61" r="28.61" fill="none"/>
    </g>
    <path id="Icon_awesome-spotify" data-name="Icon awesome-spotify" d="M16.126.563A16.126,16.126,0,1,0,32.252,16.688,16.132,16.132,0,0,0,16.126.563ZM22.674,24.29a1.241,1.241,0,0,1-.7-.234c-4.058-2.445-8.778-2.549-13.44-1.593a4.2,4.2,0,0,1-.774.169A1.012,1.012,0,0,1,6.736,21.6a1.03,1.03,0,0,1,.884-1.092c5.325-1.177,10.768-1.073,15.411,1.7a1.1,1.1,0,0,1,.631,1.073.983.983,0,0,1-.988,1Zm1.749-4.266a1.606,1.606,0,0,1-.8-.273A21.072,21.072,0,0,0,8.109,17.839a2.678,2.678,0,0,1-.774.169,1.263,1.263,0,0,1-1.261-1.261A1.279,1.279,0,0,1,7.081,15.4a21.871,21.871,0,0,1,6.359-.884A22.762,22.762,0,0,1,24.95,17.475a1.356,1.356,0,0,1,.735,1.281,1.26,1.26,0,0,1-1.261,1.268Zm2.016-4.955a1.5,1.5,0,0,1-.839-.254c-4.63-2.764-12.907-3.427-18.265-1.931a3.089,3.089,0,0,1-.839.169,1.5,1.5,0,0,1-1.515-1.535A1.536,1.536,0,0,1,6.112,9.965a27.253,27.253,0,0,1,7.64-.988c4.747,0,9.721.988,13.356,3.108a1.526,1.526,0,0,1,.839,1.47,1.507,1.507,0,0,1-1.509,1.515Z" transform="translate(1590.172 396.602)" fill="#fff"/>
  </g>
</svg>
