<svg xmlns="http://www.w3.org/2000/svg" width="18.475" height="18.475" viewBox="0 0 18.475 18.475">
  <path id="Icon_awesome-phone-alt" data-name="Icon awesome-phone-alt" d="M17.948,13.055l-4.041-1.732a.866.866,0,0,0-1.01.249l-1.79,2.187A13.375,13.375,0,0,1,4.713,7.365L6.9,5.576a.864.864,0,0,0,.249-1.01L5.416.524a.872.872,0,0,0-.992-.5L.671.888A.866.866,0,0,0,0,1.732,16.741,16.741,0,0,0,16.743,18.475a.866.866,0,0,0,.844-.671l.866-3.753a.876.876,0,0,0-.506-1Z" transform="translate(0 0)" fill="#b08053"/>
</svg>
