<svg xmlns="http://www.w3.org/2000/svg" width="59" height="59" viewBox="0 0 59 59">
  <g id="Grupo_13318" data-name="Grupo 13318" transform="translate(0.074 0.057)">
    <g id="Elipse_295" data-name="Elipse 295" transform="translate(-0.074 -0.057)" fill="none" stroke="#fff" stroke-width="2">
      <circle cx="29.5" cy="29.5" r="29.5" stroke="none"/>
      <circle cx="29.5" cy="29.5" r="28.5" fill="none"/>
    </g>
    <path id="Icon_simple-tiktok" data-name="Icon simple-tiktok" d="M16.254.025C17.915,0,19.564.013,21.212,0a7.9,7.9,0,0,0,2.219,5.287,8.942,8.942,0,0,0,5.376,2.27v5.11a13.572,13.572,0,0,1-5.326-1.23,15.666,15.666,0,0,1-2.054-1.179c-.013,3.7.013,7.4-.025,11.095a9.685,9.685,0,0,1-1.712,5,9.447,9.447,0,0,1-7.494,4.07,9.246,9.246,0,0,1-5.173-1.306A9.562,9.562,0,0,1,2.4,21.872c-.025-.634-.038-1.268-.013-1.889a9.546,9.546,0,0,1,11.069-8.47c.025,1.877-.051,3.753-.051,5.63a4.351,4.351,0,0,0-5.554,2.688,5.03,5.03,0,0,0-.178,2.041,4.315,4.315,0,0,0,4.438,3.639A4.26,4.26,0,0,0,15.62,23.47a2.926,2.926,0,0,0,.52-1.344c.127-2.27.076-4.527.089-6.8.013-5.11-.013-10.207.025-15.3Z" transform="translate(13.875 14.025)" fill="#fff"/>
  </g>
</svg>
