<svg xmlns="http://www.w3.org/2000/svg" width="58" height="58" viewBox="0 0 58 58">
  <g id="Grupo_13316" data-name="Grupo 13316" transform="translate(-0.491 -0.471)">
    <g id="Elipse_292" data-name="Elipse 292" transform="translate(0.491 0.471)" fill="none" stroke="#fff" stroke-width="2">
      <circle cx="29" cy="29" r="29" stroke="none"/>
      <circle cx="29" cy="29" r="28" fill="none"/>
    </g>
    <path id="Icon_simple-twitter" data-name="Icon simple-twitter" d="M30.373,6.314a12.681,12.681,0,0,1-3.582.983,6.287,6.287,0,0,0,2.743-3.453,12.887,12.887,0,0,1-3.965,1.5A6.237,6.237,0,0,0,14.777,9.6a6.384,6.384,0,0,0,.161,1.425,17.669,17.669,0,0,1-12.859-6.5,6.114,6.114,0,0,0-.844,3.138,6.239,6.239,0,0,0,2.774,5.194,6.219,6.219,0,0,1-2.825-.781v.077a6.242,6.242,0,0,0,5,6.12,6.3,6.3,0,0,1-2.8.108,6.26,6.26,0,0,0,5.838,4.333,12.513,12.513,0,0,1-7.737,2.669A13.242,13.242,0,0,1,0,25.3a17.746,17.746,0,0,0,9.582,2.8c11.48,0,17.75-9.5,17.75-17.734,0-.265,0-.533-.019-.8A12.6,12.6,0,0,0,30.433,6.34l-.06-.025Z" transform="translate(14.247 15.479)" fill="#fff"/>
  </g>
</svg>
