<svg xmlns="http://www.w3.org/2000/svg" width="625.711" height="838.12" viewBox="0 0 625.711 838.12">
  <g id="Grupo_13571" data-name="Grupo 13571" transform="translate(409.283 -1361.602)">
    <path id="Trazado_4986" data-name="Trazado 4986" d="M32.194-302.791c-3.32.424-44.587.386-47.363-.032.64-.942,1.645-1.12,2.419-1.587.835-.5,1.725-.916,2.578-1.391s1.7-.965,2.533-1.475q1.389-.85,2.746-1.751,1.223-.808,2.414-1.662t2.355-1.746q1.162-.893,2.293-1.826c.753-.623,1.492-1.263,2.223-1.912s1.456-1.3,2.163-1.979q1.178-1.124,2.315-2.291,1.025-1.047,2.012-2.132t1.939-2.2q.95-1.116,1.862-2.264t1.784-2.326c.583-.784,1.156-1.576,1.711-2.38s1.093-1.62,1.619-2.443c.585-.915,1.161-1.835,1.716-2.768.5-.839.978-1.692,1.446-2.549s.925-1.721,1.366-2.593.866-1.751,1.279-2.636.814-1.776,1.2-2.672.767-1.8,1.119-2.708c.392-1.012.762-2.033,1.12-3.057.323-.921.632-1.848.92-2.781s.536-1.878.809-2.816.549-1.852.973-3.278a7.2,7.2,0,0,1,.521,1.427c.055.757.022,1.519.022,2.279q0,25.739,0,51.477C32.285-305.574,32.229-304.284,32.194-302.791Z" transform="translate(184.13 2502.211)" fill="#b7935e"/>
    <path id="Trazado_4987" data-name="Trazado 4987" d="M33.043-604.632c-1.391-4.118-2.572-8.242-4.179-12.192-1.589-3.9-3.506-7.687-5.466-11.425a59.81,59.81,0,0,0-7.249-10.78c-2.722-3.227-5.579-6.354-8.539-9.364a59.886,59.886,0,0,0-10.09-8.183c-3.5-2.278-7.118-4.382-10.867-6.674a3.666,3.666,0,0,1,.954-.4c8.095-.392,42.984-.154,45.567.309a5.267,5.267,0,0,1,.28,1.2q.025,28.466,0,56.933C33.458-605.049,33.24-604.894,33.043-604.632Z" transform="translate(182.752 2025.45)" fill="#b7935e"/>
    <path id="Trazado_4988" data-name="Trazado 4988" d="M-352.44-356.531c7.877,25.617,22.942,44.947,46.869,56.983-.009.7-.478.68-.887.682q-3.253.021-6.507.017-17.732,0-35.463,0c-1.178,0-2.356-.039-3.5-.059-.8-1.248-.49-2.474-.493-3.623-.029-9.654-.017-19.307-.017-28.961v-25.037Z" transform="translate(-56.802 2498.567)" fill="#b7935e"/>
    <path id="Trazado_4989" data-name="Trazado 4989" d="M-352.039-605.53v-57.5a14.65,14.65,0,0,1,2.2-.361c3.254-.039,6.509-.021,9.763-.021q15.459,0,30.918,0c1.065,0,2.13.058,3.477.1-.595,1.214-1.6,1.426-2.387,1.839a84.1,84.1,0,0,0-27.849,23.57,89.467,89.467,0,0,0-14.873,29.454c-.215.728-.429,1.455-.673,2.173C-351.525-606.1-351.7-605.96-352.039-605.53Z" transform="translate(-57.094 2025.164)" fill="#b7935e"/>
  </g>
</svg>
